name Walk10.mot
datacolumns 19
datarows 15
range 2.13000000 2.14400000
endheader

                time	   L_ground_force_vx	   L_ground_force_vy	   L_ground_force_vz	   L_ground_force_px	   L_ground_force_py	   L_ground_force_pz	   R_ground_force_vx	   R_ground_force_vy	   R_ground_force_vz	   R_ground_force_px	   R_ground_force_py	   R_ground_force_pz	   L_ground_torque_x	   L_ground_torque_y	   L_ground_torque_z	   R_ground_torque_x	   R_ground_torque_y	   R_ground_torque_z	
          2.13000000	         -0.00000000	         -0.00000000	          0.00000000	          0.00000000	          0.00000000	         -0.00000000	         -1.29649275	         -6.08593780	          0.31106827	          0.02833980	          0.00000000	          0.00729588	          0.00000000	         -0.00000000	          0.00000000	          0.00000000	          0.28785715	          0.00000000	
          2.13100000	         -0.00000000	          0.00000000	          0.00000000	          0.00000000	          0.00000000	         -0.00000000	         -1.32710671	         -6.19853880	          0.27738058	          0.02392779	          0.00000000	          0.00611097	          0.00000000	         -0.00000000	          0.00000000	          0.00000000	          0.29503543	          0.00000000	
          2.13200000	          0.00000000	          0.00000000	          0.00000000	          0.00000000	          0.00000000	         -0.00000000	         -1.35010292	         -6.27814316	          0.24550901	          0.01980050	          0.00000000	          0.00500372	          0.00000000	         -0.00000000	          0.00000000	          0.00000000	          0.30048851	          0.00000000	
          2.13300000	          0.00000000	          0.00000000	          0.00000000	          0.00000000	          0.00000000	         -0.00000000	         -1.36604217	         -6.32725558	          0.21541957	          0.01594930	          0.00000000	          0.00397170	          0.00000000	         -0.00000000	          0.00000000	          0.00000000	          0.30434246	          0.00000000	
          2.13400000	          0.00000000	          0.00000000	          0.00000000	          0.00000000	          0.00000000	         -0.00000000	         -1.37546424	         -6.34828304	          0.18707444	          0.01236528	          0.00000000	          0.00301242	          0.00000000	         -0.00000000	          0.00000000	          0.00000000	          0.30671870	          0.00000000	
          2.13500000	          0.00000000	          0.00000000	          0.00000000	          0.00000000	          0.00000000	         -0.00000000	         -1.37888765	         -6.34353396	          0.16043242	          0.00903926	          0.00000000	          0.00212331	          0.00000000	         -0.00000000	          0.00000000	          0.00000000	          0.30773389	          0.00000000	
          2.13600000	          0.00000000	          0.00000000	          0.00000000	          0.00000000	          0.00000000	         -0.00000000	         -1.37680949	         -6.31521793	          0.13544938	          0.00596188	          0.00000000	          0.00130178	          0.00000000	         -0.00000000	          0.00000000	          0.00000000	          0.30749990	          0.00000000	
          2.13700000	          0.00000000	          0.00000000	          0.00000000	          0.00000000	          0.00000000	         -0.00000000	         -1.36970538	         -6.26544571	          0.11207867	          0.00312362	          0.00000000	          0.00054518	          0.00000000	         -0.00000000	          0.00000000	          0.00000000	          0.30612384	          0.00000000	
          2.13800000	          0.00000000	          0.00000000	          0.00000000	          0.00000000	          0.00000000	         -0.00000000	         -1.35802949	         -6.19622967	          0.09027151	          0.00051487	          0.00000000	         -0.00014915	          0.00000000	         -0.00000000	          0.00000000	          0.00000000	          0.30370800	          0.00000000	
          2.13900000	          0.00000000	          0.00000000	          0.00000000	          0.00000000	          0.00000000	         -0.00000000	         -1.34221466	         -6.10948456	          0.06997738	         -0.00187401	          0.00000000	         -0.00078388	          0.00000000	         -0.00000000	          0.00000000	          0.00000000	          0.30034993	          0.00000000	
          2.14000000	          0.00000000	          0.00000000	          0.00000000	          0.00000000	          0.00000000	         -0.00000000	         -1.32267256	         -6.00702855	          0.05114430	         -0.00405270	          0.00000000	         -0.00136169	          0.00000000	         -0.00000000	          0.00000000	          0.00000000	          0.29614242	          0.00000000	
          2.14100000	          0.00000000	          0.00000000	          0.00000000	          0.00000000	          0.00000000	         -0.00000000	         -1.29979393	         -5.89058462	          0.03371924	         -0.00603083	          0.00000000	         -0.00188522	          0.00000000	         -0.00000000	          0.00000000	          0.00000000	          0.29117360	          0.00000000	
          2.14200000	          0.00000000	          0.00000000	          0.00000000	          0.00000000	          0.00000000	         -0.00000000	         -1.27394892	         -5.76178209	          0.01764830	         -0.00781799	          0.00000000	         -0.00235711	          0.00000000	         -0.00000000	          0.00000000	          0.00000000	          0.28552697	          0.00000000	
          2.14300000	          0.00000000	          0.00000000	          0.00000000	          0.00000000	          0.00000000	         -0.00000000	         -1.24548741	         -5.62215845	          0.00287710	         -0.00942365	          0.00000000	         -0.00277997	          0.00000000	         -0.00000000	          0.00000000	          0.00000000	          0.27928150	          0.00000000	
          2.14400000	          0.00000000	          0.00000000	          0.00000000	          0.00000000	          0.00000000	         -0.00000000	         -1.21473940	         -5.47316136	         -0.01064907	         -0.01085718	          0.00000000	         -0.00315638	          0.00000000	         -0.00000000	          0.00000000	          0.00000000	          0.27251171	          0.00000000	
